<mxfile host="65bd71144e">
    <diagram id="URzutsSc7WELEcO6_oqw" name="Page-1">
        <mxGraphModel dx="1002" dy="571" grid="1" gridSize="10" guides="1" tooltips="1" connect="1" arrows="1" fold="1" page="1" pageScale="1" pageWidth="850" pageHeight="1100" math="0" shadow="0">
            <root>
                <mxCell id="0"/>
                <mxCell id="1" parent="0"/>
                <mxCell id="3" value="Vị trí mong muốn trong t time" style="rounded=1;whiteSpace=wrap;html=1;fillColor=#60a917;fontColor=#ffffff;strokeColor=#2D7600;" vertex="1" parent="1">
                    <mxGeometry x="110" y="110" width="130" height="60" as="geometry"/>
                </mxCell>
                <mxCell id="4" value="Gửi lệnh&amp;nbsp; Constant speed đến PLC (x,v)" style="rounded=1;whiteSpace=wrap;html=1;fillColor=#60a917;fontColor=#ffffff;strokeColor=#2D7600;" vertex="1" parent="1">
                    <mxGeometry x="110" y="230" width="130" height="60" as="geometry"/>
                </mxCell>
                <mxCell id="5" value="" style="endArrow=classic;startArrow=classic;html=1;entryX=0.5;entryY=1;entryDx=0;entryDy=0;exitX=0.5;exitY=0;exitDx=0;exitDy=0;" edge="1" parent="1" source="4" target="3">
                    <mxGeometry width="50" height="50" relative="1" as="geometry">
                        <mxPoint x="295" y="340" as="sourcePoint"/>
                        <mxPoint x="345" y="290" as="targetPoint"/>
                    </mxGeometry>
                </mxCell>
                <mxCell id="6" value="UART" style="text;html=1;strokeColor=none;fillColor=none;align=center;verticalAlign=middle;whiteSpace=wrap;rounded=0;" vertex="1" parent="1">
                    <mxGeometry x="180" y="190" width="60" height="30" as="geometry"/>
                </mxCell>
                <mxCell id="7" value="Driver tự điểu khiển và chạy" style="rounded=1;whiteSpace=wrap;html=1;fillColor=#1ba1e2;fontColor=#ffffff;strokeColor=#006EAF;" vertex="1" parent="1">
                    <mxGeometry x="115" y="330" width="120" height="60" as="geometry"/>
                </mxCell>
                <mxCell id="8" value="" style="endArrow=classic;startArrow=classic;html=1;entryX=0.5;entryY=1;entryDx=0;entryDy=0;exitX=0.5;exitY=0;exitDx=0;exitDy=0;" edge="1" parent="1" source="7" target="4">
                    <mxGeometry width="50" height="50" relative="1" as="geometry">
                        <mxPoint x="295" y="330" as="sourcePoint"/>
                        <mxPoint x="345" y="280" as="targetPoint"/>
                    </mxGeometry>
                </mxCell>
                <mxCell id="9" value="&lt;h1&gt;Điều khiển bình thường&lt;/h1&gt;&lt;p&gt;Vấn đề:&amp;nbsp;&lt;/p&gt;&lt;p&gt;+ Vận tốc đáp ứng thực tế không đi theo vận tốc thực&lt;/p&gt;&lt;p&gt;+ Trong 1 lúc chỉ có thể thực hiện 1 câu lệnh --&amp;gt; Chia nhỏ thời gian thực thi các câu lệnh và dùng 1 timer để kích hàm liên tục&amp;nbsp;&lt;/p&gt;&lt;p&gt;Giải pháp:&lt;/p&gt;&lt;p&gt;+ Thủ không dùng set 1 mức vận tốc cố định mà tính ngược vận tốc từ thời gian đáp ứng mong muốn để set vận tốc&lt;/p&gt;" style="text;html=1;strokeColor=none;fillColor=none;spacing=5;spacingTop=-20;whiteSpace=wrap;overflow=hidden;rounded=0;" vertex="1" parent="1">
                    <mxGeometry x="265" y="100" width="320" height="290" as="geometry"/>
                </mxCell>
            </root>
        </mxGraphModel>
    </diagram>
</mxfile>